HIERARCHY
ROOT hip
{
	OFFSET 0.000000 0.000000 0.000000 
	CHANNELS 6 Xposition Yposition Zposition Xrotation Zrotation Yrotation
	JOINT abdomen
	{
		OFFSET 0.000000 3.402643 0.000000 
		CHANNELS 3 Xrotation Zrotation Yrotation
		JOINT chest
		{
			OFFSET 0.000000 8.438565 -0.680529 
			CHANNELS 3 Xrotation Zrotation Yrotation
			JOINT neck
			{
				OFFSET 0.000000 10.207942 -0.272212 
				CHANNELS 3 Xrotation Zrotation Yrotation
				JOINT head
				{
					OFFSET 0.000000 3.130431 0.000000 
					CHANNELS 3 Xrotation Zrotation Yrotation
					End Site
					{
						OFFSET 0.000000 3.130435 0.000000 
					}
				}
			}
			JOINT lCollar
			{
				OFFSET 3.470700 6.669187 -0.816635 
				CHANNELS 3 Yrotation Zrotation Xrotation
				JOINT lShldr
				{
					OFFSET 3.198488 0.000000 0.000000 
					CHANNELS 3 Zrotation Yrotation Xrotation
					JOINT lForeArm
					{
						OFFSET 10.139888 0.000000 0.000000 
						CHANNELS 3 Yrotation Zrotation Xrotation
						JOINT lHand
						{
							OFFSET 8.370511 0.000000 0.000000 
							CHANNELS 3 Zrotation Yrotation Xrotation
							End Site
							{
								OFFSET 4.083176 0.000000 0.000000 
							}
						}
					}
				}
			}
			JOINT rCollar
			{
				OFFSET -3.470700 6.669187 -0.816635 
				CHANNELS 3 Yrotation Zrotation Xrotation
				JOINT rShldr
				{
					OFFSET -3.198488 0.000000 0.000000 
					CHANNELS 3 Zrotation Yrotation Xrotation
					JOINT rForeArm
					{
						OFFSET -10.139888 0.000000 0.000000 
						CHANNELS 3 Yrotation Zrotation Xrotation
						JOINT rHand
						{
							OFFSET -8.370511 0.000000 0.000000 
							CHANNELS 3 Zrotation Yrotation Xrotation
							End Site
							{
								OFFSET -4.083176 0.000000 0.000000 
							}
						}
					}
				}
			}
		}
	}
	JOINT lThigh
	{
		OFFSET 5.308129 -1.633274 1.361059 
		CHANNELS 3 Xrotation Zrotation Yrotation
		JOINT lShin
		{
			OFFSET -2.041588 -20.007561 0.000000 
			CHANNELS 3 Xrotation Zrotation Yrotation
			JOINT lFoot
			{
				OFFSET 0.000000 -19.190928 -1.224953 
				CHANNELS 3 Xrotation Yrotation Zrotation
				End Site
				{
					OFFSET 0.000000 -2.449906 4.627600 
				}
			}
		}
	}
	JOINT rThigh
	{
		OFFSET -5.308129 -1.633274 1.361059 
		CHANNELS 3 Xrotation Zrotation Yrotation
		JOINT rShin
		{
			OFFSET 2.041588 -20.007561 0.000000 
			CHANNELS 3 Xrotation Zrotation Yrotation
			JOINT rFoot
			{
				OFFSET 0.000000 -19.190928 -1.224953 
				CHANNELS 3 Xrotation Yrotation Zrotation
				End Site
				{
					OFFSET 0.000000 -2.449906 4.627600 
				}
			}
		}
	}
}
MOTION
Frames: 16
Frame Time: 0.011111
0.290204 51.665100 -5.469069 4.381735 3.518293 -6.527625 30.332928 -4.380354 -2.103745 -23.057564 -0.846640 -0.100637 -16.375910 -10.069010 -3.647969 9.897307 16.877754 -9.612950 2.424333 -4.683778 1.783845 -67.405312 -30.147932 12.943071 -50.182934 7.737466 8.222036 8.524705 12.647240 -43.196663 -2.738486 -1.140572 2.095526 74.234764 29.651884 24.777004 51.440830 -8.025834 8.750308 -8.534408 -12.637552 26.527201 -10.090042 4.381240 1.902743 31.630787 -5.240180 -5.063141 -25.088898 1.473250 -1.598356 -14.429732 -7.841030 16.366098 35.086262 5.003806 5.488005 -30.387119 -5.346909 -1.238248 
0.307346 51.533676 -5.541845 4.293306 3.435503 -6.607019 30.943342 -4.240246 -1.941073 -23.116117 -0.903261 -0.066648 -16.475000 -10.073603 -3.412951 9.291789 16.867754 -9.282490 2.424333 -4.683778 1.783845 -67.379669 -30.353426 13.440332 -50.549549 7.825483 8.379515 8.524705 12.647240 -43.352917 -2.738486 -1.140572 2.095526 74.069618 29.802052 25.035183 51.807106 -8.097712 8.895741 -8.534408 -12.637552 26.449078 -10.829830 4.570276 2.322514 33.015282 -5.162935 -5.223992 -25.427969 0.907793 -1.809644 -14.957953 -7.694815 16.171904 36.078568 4.940870 5.605396 -30.647577 -4.951025 -1.093609 
0.319977 51.388729 -5.616126 4.234698 3.360587 -6.615571 31.593908 -4.114773 -1.842150 -23.213757 -0.941015 -0.042962 -16.736734 -9.981671 -3.208579 8.866792 16.683943 -8.955154 2.424333 -4.683778 1.783845 -67.323441 -30.520317 14.180959 -51.041302 7.933383 8.579634 8.524705 12.647240 -43.001350 -2.738486 -1.140572 2.095526 73.914978 29.971512 25.332741 52.300747 -8.198370 9.100524 -8.534408 -12.637552 26.654156 -11.576134 4.753310 2.690043 34.418835 -5.065418 -5.398776 -25.628300 0.355088 -2.050338 -15.470029 -7.576875 15.940410 37.060436 4.872952 5.718919 -30.932028 -4.475665 -0.900664 
0.334713 51.249187 -5.674167 4.119103 3.368594 -6.513184 32.247650 -4.056065 -1.877478 -23.321192 -0.941777 -0.050939 -16.834721 -9.781796 -3.045760 8.200456 16.349770 -8.684562 2.424333 -4.683778 1.783845 -67.235619 -30.599773 14.959890 -51.617424 8.054363 8.813454 8.524705 12.647240 -42.552132 -2.738486 -1.140572 2.095526 73.779381 30.111227 25.645613 52.732208 -8.284222 9.276519 -8.534408 -12.637552 26.761580 -12.222395 4.832073 3.106137 35.769466 -4.972440 -5.577779 -25.692696 -0.147952 -2.259153 -15.966529 -7.617109 15.505213 38.041985 4.788412 5.855966 -31.214405 -4.028648 -0.760670 
0.358469 51.113560 -5.718675 4.071374 3.375612 -6.417259 32.791897 -3.951080 -1.846124 -23.350487 -0.951544 -0.049769 -16.917511 -9.670168 -2.879373 7.581933 16.039927 -8.436239 2.424333 -4.683778 1.783845 -67.167068 -30.649641 15.758870 -52.162754 8.163043 9.030475 8.524705 12.647240 -42.151749 -2.738486 -1.140572 2.095526 73.591644 30.173918 25.878698 53.226326 -8.374660 9.477833 -8.534408 -12.637552 26.956890 -12.929935 4.922122 3.472765 37.097591 -4.887471 -5.746258 -25.799297 -0.595675 -2.466888 -16.521597 -7.665566 14.963641 39.031567 4.720191 5.968402 -31.408079 -3.646290 -0.591851 
0.378317 50.971916 -5.781528 4.159459 3.370033 -6.334867 33.217411 -3.826453 -1.772321 -23.506758 -0.950961 -0.037435 -16.968222 -9.514805 -2.682379 7.118338 15.703593 -8.079776 2.424333 -4.683778 1.783845 -67.128120 -30.689293 16.509792 -52.645763 8.256383 9.227659 8.524705 12.647240 -41.849010 -2.738486 -1.140572 2.095526 73.401062 30.138954 26.077612 53.754128 -8.475417 9.708354 -8.534408 -12.637552 27.122904 -13.810128 5.045070 3.850915 38.376869 -4.787069 -5.884711 -25.939396 -1.034254 -2.647568 -17.258415 -7.694149 14.468128 40.060215 4.641640 6.090184 -31.589796 -3.235113 -0.399062 
0.399970 50.831779 -5.848289 4.267088 3.365611 -6.241621 33.642845 -3.695429 -1.707036 -23.633701 -0.999731 -0.031645 -16.990923 -9.396234 -2.449194 6.577645 15.514484 -7.658967 2.424333 -4.683778 1.783845 -66.990204 -30.749952 17.453461 -53.172047 8.358609 9.456832 8.524705 12.647240 -41.341198 -2.738486 -1.140572 2.095526 73.172554 30.173162 26.553511 54.249756 -8.560143 9.912966 -8.534408 -12.637552 27.474468 -14.708513 5.191813 4.137901 39.563320 -4.705536 -6.039433 -25.996807 -1.434197 -2.835997 -18.055405 -7.724388 13.991335 41.107765 4.563613 6.202496 -31.768122 -2.790823 -0.203836 
0.417112 50.680805 -5.908736 4.287326 3.451734 -6.184638 34.170799 -3.689456 -1.721753 -23.702055 -1.028979 -0.028208 -17.274960 -9.371621 -2.180376 6.315968 15.528336 -7.209666 2.424333 -4.683778 1.783845 -66.823257 -30.850100 18.308458 -53.750431 8.458711 9.693289 8.524705 12.647240 -40.891979 -2.738486 -1.140572 2.095526 72.949593 30.402590 27.107609 54.586487 -8.612229 10.054221 -8.534408 -12.637552 27.982279 -15.414735 5.212517 4.505057 40.701309 -4.601871 -6.180356 -26.092211 -1.898573 -3.034708 -18.793007 -7.860342 13.489633 42.194633 4.465910 6.329401 -32.007664 -2.377036 -0.018695 
0.431247 50.529842 -5.966175 4.308195 3.633734 -6.101358 34.673767 -3.787326 -1.811743 -23.789965 -1.019285 -0.027393 -17.407780 -9.287584 -1.966683 5.891850 15.348150 -6.829454 2.424333 -4.683778 1.783845 -66.764809 -30.909567 18.912384 -54.342171 8.565752 9.947236 8.524705 12.647240 -40.667374 -2.738486 -1.140572 2.095526 72.804977 30.581482 27.307833 54.924587 -8.666863 10.196188 -8.534408 -12.637552 28.216656 -16.050686 5.174076 4.932724 41.708370 -4.523741 -6.307829 -26.175413 -2.314842 -3.225054 -19.569798 -8.115043 13.022397 43.278534 4.387577 6.471665 -32.321423 -1.932426 0.166855 
0.442975 50.382484 -6.026320 4.348971 3.814028 -5.967973 35.138638 -3.894958 -1.947224 -23.838818 -0.981911 -0.049080 -17.314001 -9.219262 -1.770390 5.145193 15.242081 -6.510375 2.424333 -4.683778 1.783845 -66.748070 -31.066084 19.336811 -54.870407 8.652428 10.164262 8.524705 12.647240 -40.520882 -2.738486 -1.140572 2.095526 72.719353 30.729816 27.334215 55.348103 -8.735737 10.380097 -8.534408 -12.637552 28.158062 -16.675200 5.125133 5.263455 42.685501 -4.452578 -6.405457 -26.338524 -2.741582 -3.449373 -20.333920 -8.368041 12.628526 44.344200 4.296767 6.567753 -32.629967 -1.476631 0.375899 
0.453801 50.235428 -6.088573 4.350187 3.955655 -5.898451 35.690784 -3.981885 -2.017834 -23.965839 -0.893624 -0.044307 -17.300684 -9.180470 -1.579810 4.636452 15.059295 -6.195184 2.424333 -4.683778 1.783845 -66.760376 -31.183113 19.708158 -55.345463 8.725248 10.372478 8.524705 12.647240 -40.452526 -2.738486 -1.140572 2.095526 72.501488 30.793007 27.561441 55.834042 -8.805649 10.590671 -8.534408 -12.637552 28.285011 -17.208954 5.113869 5.647138 43.603722 -4.367793 -6.502408 -26.479965 -3.223994 -3.665811 -21.041826 -8.563809 12.288399 45.378174 4.201834 6.706674 -32.931389 -1.099018 0.540972 
0.461620 50.089878 -6.144508 4.321898 4.066559 -5.852703 36.263012 -4.068990 -2.066357 -24.122190 -0.766416 -0.042791 -17.470285 -9.048383 -1.406163 4.388813 14.719254 -5.874465 2.424333 -4.683778 1.783845 -66.810860 -31.221434 20.109823 -55.842312 8.797563 10.583014 8.524705 12.647240 -40.354870 -2.738486 -1.140572 2.095526 72.224548 30.886688 27.840282 56.225075 -8.857433 10.748775 -8.534408 -12.637552 28.617046 -17.717951 5.173095 6.053419 44.529999 -4.296687 -6.602877 -26.636042 -3.740724 -3.931097 -21.686773 -8.720102 12.004680 46.392567 4.113904 6.806702 -33.287567 -0.726912 0.680877 
0.470041 49.936504 -6.191121 4.283470 4.088151 -5.804596 36.801258 -4.066511 -2.034589 -24.229660 -0.717009 -0.035813 -17.539314 -8.879470 -1.270823 3.999125 14.431430 -5.605819 2.424333 -4.683778 1.783845 -66.832314 -31.299253 20.461893 -56.307957 8.861444 10.772840 8.524705 12.647240 -40.276745 -2.738486 -1.140572 2.095526 72.077576 30.987411 27.874454 56.565620 -8.909735 10.902463 -8.534408 -12.637552 28.792826 -18.203266 5.342168 6.457565 45.454399 -4.233946 -6.726016 -26.850931 -4.177134 -4.124278 -22.231283 -8.758962 11.735820 47.386593 4.016080 6.919053 -33.620663 -0.421061 0.832037 
0.482671 49.759975 -6.244651 4.235674 4.166543 -5.743165 37.341114 -4.085377 -2.063685 -24.356670 -0.657861 -0.029652 -17.464827 -8.814823 -1.079774 3.502052 14.289686 -5.259259 2.424333 -4.683778 1.783845 -66.834496 -31.406658 20.852509 -56.659237 8.915797 10.936653 8.524705 12.647240 -40.081432 -2.738486 -1.140572 2.095526 71.981049 31.106621 27.773542 56.893867 -8.951951 11.047521 -8.534408 -12.637552 28.802593 -18.688431 5.399277 6.793890 46.351582 -4.150702 -6.798889 -27.038462 -4.620355 -4.334031 -22.882036 -8.856234 11.505549 48.419651 3.925612 7.007429 -33.902863 -0.144623 0.950985 
0.504023 49.608711 -6.298481 4.169793 4.393278 -5.594069 37.955124 -4.217020 -2.237002 -24.522747 -0.601368 -0.052521 -17.446562 -8.685340 -0.928999 3.064116 14.061987 -4.952818 2.424333 -4.683778 1.783845 -66.788559 -31.592915 21.305540 -56.912994 8.945848 11.039962 8.524705 12.647240 -39.837292 -2.738486 -1.140572 2.095526 71.855644 31.265495 27.774374 57.116386 -8.978921 11.139365 -8.534408 -12.637552 28.802593 -19.079197 5.272391 7.087242 47.217411 -4.072902 -6.899365 -27.238180 -5.060379 -4.579567 -23.527246 -9.197837 11.196314 49.499588 3.830301 7.144377 -34.243092 0.067434 0.998575 
0.513947 49.446617 -6.365846 4.183193 4.676273 -5.297822 38.531097 -4.337836 -2.546861 -24.620478 -0.528188 -0.107346 -17.472477 -8.437438 -0.847306 2.481138 13.727108 -4.779976 2.424333 -4.683778 1.783845 -66.734291 -31.857424 21.596970 -57.219566 8.980456 11.167601 8.524705 12.647240 -39.729870 -2.738486 -1.140572 2.095526 71.773170 31.530926 27.712873 57.243866 -8.995410 11.195546 -8.534408 -12.637552 28.763529 -19.561646 5.084508 7.311385 48.083294 -3.985093 -6.994246 -27.395788 -5.491038 -4.805704 -24.291513 -9.579206 10.868740 50.610016 3.713132 7.253699 -34.668575 0.351694 1.128768 
